<svg width="900" height="650" viewBox="0 0 900 650" fill="none" xmlns="http://www.w3.org/2000/svg">
  <rect width="900" height="650" rx="24" fill="#F8FAFC"/>
  <rect x="18" y="18" width="864" height="614" rx="18" fill="white" stroke="#CBD5E1" stroke-width="2"/>

  <text x="450" y="84" text-anchor="middle" font-family="Georgia, 'Times New Roman', serif" font-size="28" font-weight="600" fill="#0F172A">
    Modulus of Volume Compressibility
  </text>

  <text x="450" y="124" text-anchor="middle" font-family="Georgia, 'Times New Roman', serif" font-size="24" fill="#0F172A">
    m<tspan dy="8" font-size="16">v</tspan><tspan dy="-8"></tspan> = 1 / (f<tspan dy="8" font-size="16">2</tspan><tspan dy="-8"></tspan> N<tspan dy="8" font-size="16">60</tspan><tspan dy="-8"></tspan>) (m<tspan baseline-shift="super" font-size="16">2</tspan>/MN)
  </text>

  <g stroke="#CBD5E1" stroke-width="2">
    <line x1="130" y1="160" x2="130" y2="530"/>
    <line x1="210" y1="160" x2="210" y2="530"/>
    <line x1="290" y1="160" x2="290" y2="530"/>
    <line x1="370" y1="160" x2="370" y2="530"/>
    <line x1="450" y1="160" x2="450" y2="530"/>
    <line x1="530" y1="160" x2="530" y2="530"/>
    <line x1="610" y1="160" x2="610" y2="530"/>
    <line x1="690" y1="160" x2="690" y2="530"/>
    <line x1="770" y1="160" x2="770" y2="530"/>

    <line x1="130" y1="530" x2="770" y2="530"/>
    <line x1="130" y1="493" x2="770" y2="493"/>
    <line x1="130" y1="456" x2="770" y2="456"/>
    <line x1="130" y1="419" x2="770" y2="419"/>
    <line x1="130" y1="382" x2="770" y2="382"/>
    <line x1="130" y1="345" x2="770" y2="345"/>
    <line x1="130" y1="308" x2="770" y2="308"/>
    <line x1="130" y1="271" x2="770" y2="271"/>
    <line x1="130" y1="234" x2="770" y2="234"/>
    <line x1="130" y1="197" x2="770" y2="197"/>
    <line x1="130" y1="160" x2="770" y2="160"/>
  </g>

  <g stroke="#334155" stroke-width="3">
    <line x1="130" y1="160" x2="130" y2="530"/>
    <line x1="130" y1="530" x2="770" y2="530"/>
  </g>

  <g font-family="Georgia, 'Times New Roman', serif" font-size="20" fill="#334155">
    <text x="130" y="562" text-anchor="middle">0</text>
    <text x="210" y="562" text-anchor="middle">10</text>
    <text x="290" y="562" text-anchor="middle">20</text>
    <text x="370" y="562" text-anchor="middle">30</text>
    <text x="450" y="562" text-anchor="middle">40</text>
    <text x="530" y="562" text-anchor="middle">50</text>
    <text x="610" y="562" text-anchor="middle">60</text>
    <text x="690" y="562" text-anchor="middle">70</text>

    <text x="104" y="536" text-anchor="end">0</text>
    <text x="104" y="499" text-anchor="end">0,1</text>
    <text x="104" y="462" text-anchor="end">0,2</text>
    <text x="104" y="425" text-anchor="end">0,3</text>
    <text x="104" y="388" text-anchor="end">0,4</text>
    <text x="104" y="351" text-anchor="end">0,5</text>
    <text x="104" y="314" text-anchor="end">0,6</text>
    <text x="104" y="277" text-anchor="end">0,7</text>
    <text x="104" y="240" text-anchor="end">0,8</text>
    <text x="104" y="203" text-anchor="end">0,9</text>
    <text x="104" y="166" text-anchor="end">1</text>
  </g>

  <text x="450" y="610" text-anchor="middle" font-family="Georgia, 'Times New Roman', serif" font-size="24" font-weight="600" fill="#0F172A">
    Plasticity index, I<tspan dy="8" font-size="16">p</tspan><tspan dy="-8"></tspan> (%)
  </text>

  <text x="60" y="350" text-anchor="middle" transform="rotate(-90 60 350)" font-family="Georgia, 'Times New Roman', serif" font-size="24" font-weight="600" fill="#0F172A">
    f<tspan dy="8" font-size="16">2</tspan><tspan dy="-8"></tspan>
  </text>

  <path
    d="M210 252
       C230 282, 255 307, 290 330
       C325 352, 360 366, 410 372
       C470 378, 540 376, 610 378
       C655 381, 700 385, 740 383"
    fill="none"
    stroke="#111827"
    stroke-width="5"
    stroke-linecap="round"
    stroke-linejoin="round"
  />
</svg>
