<svg xmlns="http://www.w3.org/2000/svg" width="1200" height="700" viewBox="0 0 1200 700" fill="none">
  <rect width="1200" height="700" fill="#EAF0E8"/>
  <rect x="80" y="80" width="1040" height="540" rx="24" fill="#F9FBF8" stroke="#CFDCC9"/>
  <path d="M150 500C250 470 340 380 430 350C530 317 640 336 730 286C830 230 900 160 1040 170" stroke="#47614A" stroke-width="10" stroke-linecap="round"/>
  <path d="M150 540C250 510 340 420 430 390C530 357 640 376 730 326C830 270 900 200 1040 210" stroke="#8A9B7C" stroke-width="10" stroke-linecap="round" opacity="0.7"/>
  <circle cx="430" cy="350" r="14" fill="#47614A"/>
  <circle cx="730" cy="286" r="14" fill="#47614A"/>
  <rect x="880" y="360" width="130" height="100" rx="10" fill="#B9A27A"/>
  <text x="130" y="170" fill="#1F2937" font-size="44" font-family="Arial, sans-serif" font-weight="700">Route Planning</text>
  <text x="130" y="220" fill="#374151" font-size="28" font-family="Arial, sans-serif">Railway corridor selection and constraints</text>
</svg>
