<svg xmlns="http://www.w3.org/2000/svg" viewBox="0 0 980 700" role="img" aria-labelledby="title desc">
  <title id="title">Stroud (1974) f1 versus PI chart</title>
  <desc id="desc">Black-and-white reference style scatter chart for f1 versus plasticity index with interpreted trend line.</desc>
  <rect x="0" y="0" width="980" height="700" fill="#ffffff"/>

  <g transform="translate(120,70)">
    <rect x="0" y="0" width="760" height="520" fill="#ffffff" stroke="#111111" stroke-width="4"/>

    <g stroke="#cfd4da" stroke-width="1.2">
      <line x1="0" y1="520" x2="760" y2="520"/>
      <line x1="0" y1="468" x2="760" y2="468"/>
      <line x1="0" y1="416" x2="760" y2="416"/>
      <line x1="0" y1="364" x2="760" y2="364"/>
      <line x1="0" y1="312" x2="760" y2="312"/>
      <line x1="0" y1="260" x2="760" y2="260"/>
      <line x1="0" y1="208" x2="760" y2="208"/>
      <line x1="0" y1="156" x2="760" y2="156"/>
      <line x1="0" y1="104" x2="760" y2="104"/>
      <line x1="0" y1="52" x2="760" y2="52"/>
      <line x1="0" y1="0" x2="760" y2="0"/>

      <line x1="0" y1="0" x2="0" y2="520"/>
      <line x1="108.6" y1="0" x2="108.6" y2="520"/>
      <line x1="217.1" y1="0" x2="217.1" y2="520"/>
      <line x1="325.7" y1="0" x2="325.7" y2="520"/>
      <line x1="434.3" y1="0" x2="434.3" y2="520"/>
      <line x1="542.9" y1="0" x2="542.9" y2="520"/>
      <line x1="651.4" y1="0" x2="651.4" y2="520"/>
      <line x1="760" y1="0" x2="760" y2="520"/>
    </g>

    <g fill="#111111" font-family="Georgia, Times New Roman, serif" font-size="34" font-weight="700">
      <text x="-24" y="528" text-anchor="end">0</text>
      <text x="-24" y="476" text-anchor="end">1</text>
      <text x="-24" y="424" text-anchor="end">2</text>
      <text x="-24" y="372" text-anchor="end">3</text>
      <text x="-24" y="320" text-anchor="end">4</text>
      <text x="-24" y="268" text-anchor="end">5</text>
      <text x="-24" y="216" text-anchor="end">6</text>
      <text x="-24" y="164" text-anchor="end">7</text>
      <text x="-24" y="112" text-anchor="end">8</text>
      <text x="-24" y="60" text-anchor="end">9</text>
      <text x="-24" y="16" text-anchor="end">10</text>
    </g>

    <g fill="#111111" font-family="Georgia, Times New Roman, serif" font-size="34" font-weight="700">
      <text x="0" y="566" text-anchor="middle">0</text>
      <text x="108.6" y="566" text-anchor="middle">10</text>
      <text x="217.1" y="566" text-anchor="middle">20</text>
      <text x="325.7" y="566" text-anchor="middle">30</text>
      <text x="434.3" y="566" text-anchor="middle">40</text>
      <text x="542.9" y="566" text-anchor="middle">50</text>
      <text x="651.4" y="566" text-anchor="middle">60</text>
      <text x="760" y="566" text-anchor="middle">70</text>
    </g>

    <g fill="#111111" font-family="Georgia, Times New Roman, serif" font-size="46" font-weight="700">
      <text x="380" y="634" text-anchor="middle">PI (%)</text>
      <text x="-96" y="260" text-anchor="middle" transform="rotate(-90 -96,260)">f1 (kN/m²)</text>
    </g>

    <path
      d="M180 140 C210 188, 245 220, 300 238 C350 253, 420 266, 760 286"
      fill="none"
      stroke="#111111"
      stroke-width="6"
      stroke-linecap="round"
    />

    <g fill="#111111" stroke="#111111" stroke-width="3">
      <circle cx="165" cy="184" r="7"/>
      <circle cx="182" cy="206" r="7"/>
      <circle cx="204" cy="222" r="7"/>
      <circle cx="228" cy="236" r="7"/>
      <circle cx="247" cy="248" r="7"/>
      <circle cx="272" cy="258" r="7"/>
      <circle cx="298" cy="266" r="7"/>
      <circle cx="336" cy="268" r="7"/>
      <circle cx="364" cy="272" r="7"/>
      <circle cx="392" cy="274" r="7"/>
      <circle cx="418" cy="276" r="7"/>
      <circle cx="446" cy="278" r="7"/>
      <circle cx="474" cy="280" r="7"/>
      <circle cx="500" cy="281" r="7"/>
      <circle cx="528" cy="282" r="7"/>
      <circle cx="556" cy="283" r="7"/>
      <circle cx="584" cy="284" r="7"/>
      <circle cx="610" cy="285" r="7"/>
      <circle cx="638" cy="286" r="7"/>
      <circle cx="664" cy="286" r="7"/>
      <circle cx="690" cy="286" r="7"/>
    </g>
  </g>
</svg>
